<svg width="81" height="72" viewBox="0 0 81 72" fill="none" xmlns="http://www.w3.org/2000/svg">
<path d="M17.4861 68.0698L0.971053 39.4612C-0.32108 37.2201 -0.32108 34.4743 0.971053 32.2333L17.4861 3.62468C18.7783 1.38363 21.1606 0.0107422 23.7449 0.0107422H56.775C59.3593 0.0107422 61.7417 1.38363 63.0338 3.62468L79.5489 32.2333C80.841 34.4743 80.841 37.2201 79.5489 39.4612L63.0338 68.0698C61.7417 70.2906 59.3593 71.6837 56.775 71.6837H23.7449C21.1606 71.6837 18.7783 70.2906 17.4861 68.0698Z" fill="url(#paint0_linear_806_1986)"/>
<path opacity="0.07" d="M76.1511 45.6414L56.123 25.6134L52.4283 26.3806L43.242 17.1943L40.3146 22.6859L40.4814 28.5786L41.425 31.751L36.2363 32.8009L29.1295 25.6941L24.3042 30.3377L33.1876 39.2212L23.7793 46.7115L49.0566 71.9888L61.3723 71.8677L76.1511 45.6414Z" fill="black"/>
<path d="M41.7905 24.1898C43.3884 23.5755 44.522 22.0262 44.522 20.2121C44.522 17.8595 42.6151 15.9521 40.2621 15.9521C37.9096 15.9521 36.0022 17.8595 36.0022 20.2121C36.0022 22.0139 37.1209 23.5546 38.7014 24.1772V30.6566C36.4738 31.3266 34.8516 33.3933 34.8516 35.8389C34.8516 36.273 34.9028 36.6954 34.9994 37.0999L29.3913 40.3378C29.1547 40.1465 28.8968 39.9799 28.6224 39.8421C28.385 39.723 28.1346 39.6254 27.8743 39.5521C27.5056 39.448 27.1168 39.3924 26.715 39.3924C24.3624 39.3924 22.4551 41.2997 22.4551 43.6523C22.4551 46.005 24.3624 47.9124 26.715 47.9124C29.068 47.9124 30.9749 46.005 30.9749 43.6523C30.9749 43.4366 30.9591 43.2244 30.928 43.0172L36.5472 39.7729C37.5164 40.6885 38.824 41.2496 40.2625 41.2496C41.705 41.2496 43.0153 40.6854 43.9854 39.7654L49.5797 42.9953C49.5466 43.2095 49.5292 43.4289 49.5292 43.6523C49.5292 46.005 51.4366 47.9124 53.7891 47.9124C56.1421 47.9124 58.0491 46.005 58.0491 43.6523C58.0491 41.2997 56.1421 39.3924 53.7891 39.3924C52.7836 39.3924 51.8589 39.7409 51.1302 40.324L45.528 37.0893C45.623 36.6879 45.6731 36.2693 45.6731 35.8389C45.6731 33.3812 44.0347 31.3065 41.7905 30.647V24.1898Z" fill="white"/>
<path d="M30.0664 28.0255C30.0664 29.8764 28.566 31.3771 26.715 31.3771C24.864 31.3771 23.3636 29.8764 23.3636 28.0255C23.3636 26.1745 24.864 24.6741 26.715 24.6741C28.566 24.6741 30.0664 26.1745 30.0664 28.0255Z" fill="white"/>
<path d="M57.1405 28.0255C57.1405 29.8764 55.6401 31.3771 53.7891 31.3771C51.9382 31.3771 50.4377 29.8764 50.4377 28.0255C50.4377 26.1745 51.9382 24.6741 53.7891 24.6741C55.6401 24.6741 57.1405 26.1745 57.1405 28.0255Z" fill="white"/>
<path d="M40.2621 54.8173C42.1131 54.8173 43.6135 53.3167 43.6135 51.4657C43.6135 49.6147 42.1131 48.1143 40.2621 48.1143C38.4112 48.1143 36.9107 49.6147 36.9107 51.4657C36.9107 53.3167 38.4112 54.8173 40.2621 54.8173Z" fill="white"/>
<defs>
<linearGradient id="paint0_linear_806_1986" x1="40.2551" y1="0.0144405" x2="40.2551" y2="71.5753" gradientUnits="userSpaceOnUse">
<stop stop-color="#4387FD"/>
<stop offset="1" stop-color="#4683EA"/>
</linearGradient>
</defs>
</svg>
