<svg width="60" height="72" viewBox="0 0 60 72" fill="none" xmlns="http://www.w3.org/2000/svg">
<path d="M59.6316 23.3537L59.6337 14.9202L29.8206 0.0107422V14.4047L59.6316 23.3537Z" fill="#DDA64C"/>
<path d="M34.2766 44.5254L59.6183 41.3273V30.6296L34.2785 27.4016L34.2786 26.4966L3.81264 22.205L3.81055 49.7888L34.2765 45.503L34.2766 44.5254Z" fill="#DDA64C"/>
<path d="M59.6162 57.0916V48.655L29.8183 57.5924L29.8162 71.9882L59.6162 57.0916Z" fill="#DDA64C"/>
<path d="M3.81055 22.204L29.8188 14.4043L59.6297 23.3526L34.2954 26.4977L3.81055 22.204Z" fill="#644922"/>
<path d="M3.81055 49.7878L29.8169 57.5924L59.6148 48.655L34.2765 45.502L3.81055 49.7878" fill="#FDD697"/>
<path fill-rule="evenodd" clip-rule="evenodd" d="M3.80925 22.2039L5.80004 22.4843L3.81134 22.205L3.81139 49.7885L29.8123 57.5915L29.8151 57.5935L29.8736 57.6724L29.912 71.8516L29.813 71.9893L0 57.0796L0.00395995 14.9143L29.8191 0.0107422L29.8162 14.4045L3.80925 22.2039ZM29.8158 45.1564L18.837 43.7588L18.8391 28.2304L29.8177 26.834L29.8158 45.1564ZM14.9022 43.257L7.77734 42.3514V29.6381L14.9043 28.7303L14.9022 43.257Z" fill="#896830"/>
</svg>
